<svg xmlns="http://www.w3.org/2000/svg" width="128" height="128" viewBox="0 0 128 128">
  <defs>
    <linearGradient id="fall" x1="0" y1="0" x2="0" y2="1">
      <stop offset="0" stop-color="#7ec8e3"/>
      <stop offset="1" stop-color="#2c3e70"/>
    </linearGradient>
  </defs>
  <rect width="128" height="128" rx="20" fill="url(#fall)"/>
  <!-- a tiny neural net: 2-3-1, the Perceptron Vault's sigil -->
  <g stroke="#f5f0e6" stroke-width="3" fill="none" opacity="0.9">
    <line x1="34" y1="46" x2="64" y2="34"/>
    <line x1="34" y1="46" x2="64" y2="64"/>
    <line x1="34" y1="46" x2="64" y2="94"/>
    <line x1="34" y1="82" x2="64" y2="34"/>
    <line x1="34" y1="82" x2="64" y2="64"/>
    <line x1="34" y1="82" x2="64" y2="94"/>
    <line x1="64" y1="34" x2="94" y2="64"/>
    <line x1="64" y1="64" x2="94" y2="64"/>
    <line x1="64" y1="94" x2="94" y2="64"/>
  </g>
  <g fill="#f5f0e6">
    <circle cx="34" cy="46" r="7"/>
    <circle cx="34" cy="82" r="7"/>
    <circle cx="64" cy="34" r="7"/>
    <circle cx="64" cy="64" r="7"/>
    <circle cx="64" cy="94" r="7"/>
  </g>
  <circle cx="94" cy="64" r="9" fill="#ffd166"/>
</svg>
