<svg xmlns="http://www.w3.org/2000/svg" width="1280" height="420" viewBox="0 0 1280 420" role="img" aria-labelledby="title desc">
  <title id="title">Daniel Talbert</title>
  <desc id="desc">Reliable AI systems, data products, and secure web applications.</desc>
  <defs>
    <linearGradient id="bg" x1="0" y1="0" x2="1" y2="1">
      <stop offset="0" stop-color="#071a33"/>
      <stop offset="1" stop-color="#143f66"/>
    </linearGradient>
    <linearGradient id="line" x1="0" y1="0" x2="1" y2="0">
      <stop stop-color="#65d5ff"/>
      <stop offset="1" stop-color="#9b8cff"/>
    </linearGradient>
  </defs>
  <rect width="1280" height="420" rx="28" fill="url(#bg)"/>
  <circle cx="1110" cy="70" r="250" fill="#1f6feb" opacity=".35"/>
  <circle cx="1190" cy="390" r="190" fill="#65d5ff" opacity=".18"/>
  <text x="74" y="178" fill="#fff" font-family="Segoe UI, sans-serif" font-size="76" font-weight="700">Daniel Talbert</text>
  <text x="80" y="246" fill="#b9dcf4" font-family="Segoe UI, sans-serif" font-size="27">CS + AI Engineering</text>
  <rect x="80" y="285" width="700" height="4" rx="2" fill="url(#line)"/>
  <text x="80" y="336" fill="#d9e9f7" font-family="Segoe UI, sans-serif" font-size="23">Reliable ML  ·  Reproducible data  ·  Secure web systems</text>
  <g transform="translate(930 118)" fill="none" stroke="#fff" stroke-width="12" stroke-linecap="round" stroke-linejoin="round">
    <circle cx="120" cy="90" r="25"/>
    <circle cx="40" cy="30" r="17"/>
    <circle cx="205" cy="30" r="17"/>
    <circle cx="35" cy="175" r="17"/>
    <circle cx="210" cy="175" r="17"/>
    <path d="M58 42 100 73M188 42l-48 34M52 165l49-53M194 162l-52-51"/>
  </g>
</svg>
